<svg width="28" height="26" viewBox="0 0 28 26" fill="none" xmlns="http://www.w3.org/2000/svg">
<g clip-path="url(#clip0_23_92)">
<path fill-rule="evenodd" clip-rule="evenodd" d="M6.80552 0H1.95546L0.773641 17.804C0.629047 19.9255 1.37115 22.0118 2.82294 23.5654C4.27473 25.1191 6.30607 26.0007 8.43244 26H19.7595C21.883 26.0004 23.9117 25.1209 25.363 23.5707C26.8143 22.0205 27.5584 19.9382 27.4183 17.8194L26.2211 0H6.80552ZM6.80552 1.53483H3.3982L2.30847 17.9115C2.19372 19.6076 2.78739 21.2753 3.94805 22.5174C5.10871 23.7596 6.73244 24.4648 8.43244 24.4652H19.7595C21.4621 24.4691 23.0899 23.7657 24.254 22.5231C25.418 21.2804 26.0137 19.6102 25.8988 17.9115L24.7937 1.53483H21.3864V2.50177C21.3864 6.52817 18.1224 9.79221 14.096 9.79221C10.0696 9.79221 6.80552 6.52817 6.80552 2.50177V1.53483ZM19.8516 1.53483H8.34035V2.50177C8.34035 5.68051 10.9172 8.25738 14.096 8.25738C17.2747 8.25738 19.8516 5.68051 19.8516 2.50177V1.53483Z" fill="white"/>
</g>
<defs>
<clipPath id="clip0_23_92">
<rect width="26.6792" height="26" fill="white" transform="translate(0.755859)"/>
</clipPath>
</defs>
</svg>
