<svg width="196" height="24" viewBox="0 0 196 24" fill="none" xmlns="http://www.w3.org/2000/svg">
<g clip-path="url(#clip0_23_91)">
<path d="M168.209 22.8017L178.932 1.19836H185.033L195.756 22.8017H189.844L187.957 18.9024H175.662L173.775 22.8017H168.209ZM177.643 14.7201H185.976L183.681 9.78308C183.597 9.57344 183.461 9.25898 183.272 8.83971C183.083 8.42043 182.895 7.99067 182.706 7.55043C182.538 7.11018 182.381 6.71187 182.234 6.35548C182.087 5.9991 181.993 5.77898 181.951 5.69512H181.7C181.532 6.1144 181.333 6.58609 181.102 7.11018C180.872 7.63428 180.651 8.1479 180.442 8.65103C180.253 9.1332 180.085 9.52103 179.939 9.81453L177.643 14.7201Z" fill="white"/>
<path d="M147.717 22.8017V1.19836H168.566V5.475H153.158V10.3491H166.994V14.6572H153.158V22.8017H147.717Z" fill="white"/>
<path d="M128.862 23.179C125.99 23.179 123.495 22.7388 121.378 21.8583C119.281 20.9778 117.667 19.7095 116.535 18.0534C115.403 16.3763 114.837 14.3532 114.837 11.9843C114.837 9.6154 115.403 7.60287 116.535 5.94672C117.667 4.26961 119.281 3.00129 121.378 2.14177C123.495 1.26129 125.99 0.821045 128.862 0.821045C131.755 0.821045 134.25 1.26129 136.346 2.14177C138.442 3.00129 140.057 4.26961 141.189 5.94672C142.321 7.60287 142.887 9.6154 142.887 11.9843C142.887 14.3532 142.321 16.3763 141.189 18.0534C140.057 19.7095 138.442 20.9778 136.346 21.8583C134.25 22.7388 131.755 23.179 128.862 23.179ZM128.862 18.871C130.099 18.871 131.231 18.7347 132.258 18.4622C133.285 18.1687 134.176 17.7494 134.931 17.2043C135.686 16.6593 136.262 15.9779 136.66 15.1604C137.08 14.3218 137.289 13.3784 137.289 12.3302V11.607C137.289 10.5588 137.08 9.62588 136.66 8.80829C136.262 7.9907 135.686 7.30937 134.931 6.76431C134.176 6.21925 133.285 5.81045 132.258 5.53792C131.231 5.24443 130.099 5.09768 128.862 5.09768C127.625 5.09768 126.493 5.24443 125.466 5.53792C124.438 5.81045 123.547 6.21925 122.793 6.76431C122.038 7.30937 121.451 7.9907 121.032 8.80829C120.633 9.62588 120.434 10.5588 120.434 11.607V12.3302C120.434 13.3784 120.633 14.3218 121.032 15.1604C121.451 15.9779 122.038 16.6593 122.793 17.2043C123.547 17.7494 124.438 18.1687 125.466 18.4622C126.493 18.7347 127.625 18.871 128.862 18.871Z" fill="white"/>
<path d="M96.9246 23.179C94.0526 23.179 91.5579 22.7388 89.4405 21.8583C87.3441 20.9778 85.7299 19.7095 84.5979 18.0534C83.4658 16.3763 82.8998 14.3532 82.8998 11.9843C82.8998 9.6154 83.4658 7.60287 84.5979 5.94672C85.7299 4.26961 87.3441 3.00129 89.4405 2.14177C91.5579 1.26129 94.0526 0.821045 96.9246 0.821045C99.8176 0.821045 102.312 1.26129 104.409 2.14177C106.505 3.00129 108.119 4.26961 109.251 5.94672C110.383 7.60287 110.949 9.6154 110.949 11.9843C110.949 14.3532 110.383 16.3763 109.251 18.0534C108.119 19.7095 106.505 20.9778 104.409 21.8583C102.312 22.7388 99.8176 23.179 96.9246 23.179ZM96.9246 18.871C98.1615 18.871 99.2935 18.7347 100.321 18.4622C101.348 18.1687 102.239 17.7494 102.994 17.2043C103.748 16.6593 104.325 15.9779 104.723 15.1604C105.142 14.3218 105.352 13.3784 105.352 12.3302V11.607C105.352 10.5588 105.142 9.62588 104.723 8.80829C104.325 7.9907 103.748 7.30937 102.994 6.76431C102.239 6.21925 101.348 5.81045 100.321 5.53792C99.2935 5.24443 98.1615 5.09768 96.9246 5.09768C95.6878 5.09768 94.5557 5.24443 93.5285 5.53792C92.5012 5.81045 91.6103 6.21925 90.8556 6.76431C90.1009 7.30937 89.5139 7.9907 89.0946 8.80829C88.6963 9.62588 88.4971 10.5588 88.4971 11.607V12.3302C88.4971 13.3784 88.6963 14.3218 89.0946 15.1604C89.5139 15.9779 90.1009 16.6593 90.8556 17.2043C91.6103 17.7494 92.5012 18.1687 93.5285 18.4622C94.5557 18.7347 95.6878 18.871 96.9246 18.871Z" fill="white"/>
<path d="M57.5256 22.8017V1.19836H62.9658V12.3616L75.6384 1.19836H82.6194L72.4939 10.1604L82.8395 22.8017H75.9844L68.5002 13.4308L62.9658 17.9276V22.8017H57.5256Z" fill="white"/>
<path d="M26.4267 22.8017L37.1497 1.19836H43.2502L53.9732 22.8017H48.0614L46.1747 18.9024H33.8793L31.9926 22.8017H26.4267ZM35.8604 14.7201H44.1936L41.898 9.78308C41.8142 9.57344 41.6779 9.25898 41.4892 8.83971C41.3006 8.42043 41.1119 7.99067 40.9232 7.55043C40.7555 7.11018 40.5983 6.71187 40.4515 6.35548C40.3048 5.9991 40.2104 5.77898 40.1685 5.69512H39.9169C39.7492 6.1144 39.5501 6.58609 39.3195 7.11018C39.0889 7.63428 38.8687 8.1479 38.6591 8.65103C38.4704 9.1332 38.3027 9.52103 38.156 9.81453L35.8604 14.7201Z" fill="white"/>
<path d="M12.6401 23.179C10.9421 23.179 9.3593 23.0742 7.89182 22.8646C6.44532 22.6759 5.16652 22.3195 4.05543 21.7954C2.94434 21.2713 2.08482 20.5481 1.47687 19.6257C0.868918 18.6823 0.564941 17.4873 0.564941 16.0408C0.564941 15.9989 0.564941 15.9465 0.564941 15.8836C0.564941 15.8207 0.575423 15.7683 0.596387 15.7264H5.91074C5.88977 15.8102 5.87929 15.9046 5.87929 16.0094C5.87929 16.1142 5.87929 16.2295 5.87929 16.3553C5.87929 17.0052 6.14134 17.5293 6.66544 17.9276C7.18953 18.3049 7.94423 18.5879 8.92954 18.7766C9.91484 18.9443 11.0679 19.0282 12.3886 19.0282C12.9546 19.0282 13.5206 19.0072 14.0867 18.9653C14.6736 18.9234 15.2292 18.8605 15.7533 18.7766C16.2983 18.6718 16.7805 18.5355 17.1998 18.3678C17.6191 18.2001 17.9545 17.9905 18.2061 17.7389C18.4576 17.4664 18.5834 17.1519 18.5834 16.7955C18.5834 16.2924 18.3318 15.8941 17.8287 15.6006C17.3465 15.2861 16.6862 15.0346 15.8476 14.8459C15.03 14.6572 14.0971 14.5 13.0489 14.3742C12.0217 14.2275 10.9526 14.0702 9.84147 13.9025C8.73038 13.7138 7.65074 13.4728 6.60254 13.1793C5.57531 12.8648 4.64242 12.4665 3.80386 11.9843C2.98627 11.4812 2.32591 10.8418 1.82278 10.0661C1.34061 9.29046 1.09952 8.3366 1.09952 7.20455C1.09952 6.15636 1.36157 5.23395 1.88567 4.43732C2.40976 3.64069 3.16446 2.96985 4.14977 2.42478C5.13507 1.87972 6.31953 1.48141 7.70315 1.22984C9.10773 0.95731 10.68 0.821045 12.42 0.821045C14.181 0.821045 15.7428 0.967792 17.1055 1.26129C18.4681 1.53382 19.6106 1.94261 20.5331 2.48768C21.4764 3.01177 22.1787 3.67214 22.6399 4.46876C23.1221 5.24443 23.3632 6.13539 23.3632 7.14166V7.61335H18.0803V7.26745C18.0803 6.80624 17.8497 6.40793 17.3885 6.0725C16.9482 5.71612 16.3193 5.4331 15.5017 5.22346C14.7051 5.01383 13.7722 4.90901 12.703 4.90901C11.2985 4.90901 10.1559 5.00334 9.27544 5.19202C8.39496 5.35973 7.74508 5.60081 7.3258 5.91527C6.90652 6.20877 6.69688 6.53371 6.69688 6.89009C6.69688 7.3513 6.93797 7.71817 7.42014 7.9907C7.92327 8.26323 8.58363 8.48335 9.40123 8.65106C10.2398 8.81877 11.1727 8.976 12.1999 9.12275C13.2481 9.24853 14.3277 9.40576 15.4388 9.59444C16.5499 9.78311 17.6191 10.0242 18.6463 10.3177C19.6945 10.5902 20.6274 10.9781 21.445 11.4812C22.2835 11.9843 22.9439 12.6132 23.4261 13.3679C23.9292 14.1017 24.1808 15.0241 24.1808 16.1352C24.1808 17.8333 23.6881 19.2064 22.7028 20.2546C21.7175 21.2818 20.3549 22.026 18.6149 22.4872C16.8958 22.9484 14.9042 23.179 12.6401 23.179Z" fill="white"/>
</g>
<defs>
<clipPath id="clip0_23_91">
<rect width="195.191" height="22.358" fill="white" transform="translate(0.564941 0.821045)"/>
</clipPath>
</defs>
</svg>
